<svg width="16" height="16" viewBox="0 0 16 16" fill="none" xmlns="http://www.w3.org/2000/svg">
<g id="Logo-QT" clip-path="url(#clip0_10_61)">
<g id="Group 627603">
<path id="Vector" d="M5.43559 9.01435C6.63407 6.81992 8.19731 5.14797 9.60423 4.36424L8.19732 2.11756C8.0931 1.96081 7.88467 1.96081 7.78045 2.11756L0.0684547 14.3437C-0.0357615 14.5004 -0.0357611 14.5527 0.172671 14.5527H3.82024C3.76813 12.9852 4.28921 11.1043 5.43559 9.01435Z" fill="#346023"/>
<path id="Vector_2" d="M10.1252 5.82728C9.34362 5.4093 7.67617 6.97675 6.42557 9.32793C5.17498 11.6791 4.75812 13.9258 5.48763 14.3438C6.06082 14.6573 6.99876 13.8735 7.98881 12.5151V9.53692C7.98881 9.22343 8.19725 9.06669 8.35357 9.32793L9.1873 10.8954C9.1873 10.8954 9.1873 10.8431 9.23941 10.8431C10.49 8.49195 10.8548 6.24527 10.1252 5.82728Z" fill="#346023"/>
<path id="Vector_3" d="M15.9092 14.3439L12.8348 9.4848C12.5743 10.4253 12.1574 11.418 11.6364 12.4107C11.3758 12.9332 11.0632 13.4034 10.7505 13.8737L11.1153 14.5529H15.805C16.0134 14.6052 16.0655 14.5529 15.9092 14.3439Z" fill="#346023"/>
</g>
</g>
<defs>
<clipPath id="clip0_10_61">
<rect width="16" height="16"/>
</clipPath>
</defs>
</svg>
